<mxfile host="app.diagrams.net" modified="2023-11-01T16:29:04.437Z" agent="Mozilla/5.0 (Windows NT 10.0; Win64; x64) AppleWebKit/537.36 (KHTML, like Gecko) Chrome/118.0.0.0 Safari/537.36" etag="kgortaWH5I4-7Z-qDs33" version="22.0.8" type="github">
  <diagram name="第 1 页" id="ucs1m8uEO6RnNJ_qUWsZ">
    <mxGraphModel dx="819" dy="429" grid="1" gridSize="10" guides="1" tooltips="1" connect="1" arrows="1" fold="1" page="1" pageScale="1" pageWidth="827" pageHeight="1169" math="0" shadow="0">
      <root>
        <mxCell id="0" />
        <mxCell id="1" parent="0" />
        <mxCell id="xDaTDdYCakricqLem4Mp-1" value="大雁" style="swimlane;fontStyle=1;align=center;verticalAlign=top;childLayout=stackLayout;horizontal=1;startSize=26;horizontalStack=0;resizeParent=1;resizeParentMax=0;resizeLast=0;collapsible=1;marginBottom=0;whiteSpace=wrap;html=1;fillColor=#fad7ac;strokeColor=#b46504;" vertex="1" parent="1">
          <mxGeometry x="411.5" y="370" width="60" height="90" as="geometry" />
        </mxCell>
        <mxCell id="xDaTDdYCakricqLem4Mp-2" value="&amp;nbsp;" style="text;strokeColor=none;fillColor=none;align=left;verticalAlign=top;spacingLeft=4;spacingRight=4;overflow=hidden;rotatable=0;points=[[0,0.5],[1,0.5]];portConstraint=eastwest;whiteSpace=wrap;html=1;" vertex="1" parent="xDaTDdYCakricqLem4Mp-1">
          <mxGeometry y="26" width="60" height="14" as="geometry" />
        </mxCell>
        <mxCell id="xDaTDdYCakricqLem4Mp-3" value="" style="line;strokeWidth=1;fillColor=none;align=left;verticalAlign=middle;spacingTop=-1;spacingLeft=3;spacingRight=3;rotatable=0;labelPosition=right;points=[];portConstraint=eastwest;strokeColor=inherit;" vertex="1" parent="xDaTDdYCakricqLem4Mp-1">
          <mxGeometry y="40" width="60" height="8" as="geometry" />
        </mxCell>
        <mxCell id="xDaTDdYCakricqLem4Mp-4" value="+下蛋()&lt;br&gt;+飛()&lt;br&gt;" style="text;strokeColor=none;fillColor=none;align=left;verticalAlign=top;spacingLeft=4;spacingRight=4;overflow=hidden;rotatable=0;points=[[0,0.5],[1,0.5]];portConstraint=eastwest;whiteSpace=wrap;html=1;" vertex="1" parent="xDaTDdYCakricqLem4Mp-1">
          <mxGeometry y="48" width="60" height="42" as="geometry" />
        </mxCell>
        <mxCell id="xDaTDdYCakricqLem4Mp-10" value="&lt;p style=&quot;margin:0px;margin-top:4px;text-align:center;&quot;&gt;&lt;i&gt;&amp;lt;&amp;lt;Interface&amp;gt;&amp;gt;&lt;/i&gt;&lt;br&gt;&lt;b&gt;飛翔&lt;/b&gt;&lt;/p&gt;&lt;hr size=&quot;1&quot;&gt;&lt;p style=&quot;margin:0px;margin-left:4px;&quot;&gt;+ 飛()&lt;br&gt;&lt;/p&gt;&lt;p style=&quot;margin:0px;margin-left:4px;&quot;&gt;&lt;br&gt;&lt;/p&gt;" style="verticalAlign=top;align=left;overflow=fill;fontSize=12;fontFamily=Helvetica;html=1;whiteSpace=wrap;fillColor=#f8cecc;strokeColor=#b85450;" vertex="1" parent="1">
          <mxGeometry x="530" y="515" width="110" height="65" as="geometry" />
        </mxCell>
        <mxCell id="xDaTDdYCakricqLem4Mp-11" style="edgeStyle=orthogonalEdgeStyle;rounded=0;orthogonalLoop=1;jettySize=auto;html=1;exitX=1;exitY=0.5;exitDx=0;exitDy=0;entryX=0;entryY=0.5;entryDx=0;entryDy=0;dashed=1;endArrow=block;endFill=0;" edge="1" parent="1" source="xDaTDdYCakricqLem4Mp-4" target="xDaTDdYCakricqLem4Mp-10">
          <mxGeometry relative="1" as="geometry" />
        </mxCell>
        <mxCell id="xDaTDdYCakricqLem4Mp-13" value="&lt;font style=&quot;font-size: 14px;&quot;&gt;實現接口&lt;/font&gt;" style="shape=note;size=20;whiteSpace=wrap;html=1;fillColor=#dae8fc;strokeColor=#6c8ebf;align=left;" vertex="1" parent="1">
          <mxGeometry x="410" y="490" width="80" height="30" as="geometry" />
        </mxCell>
      </root>
    </mxGraphModel>
  </diagram>
</mxfile>
